<?xml version="1.0" encoding="utf-8"?>
<!-- Generator: Adobe Illustrator 19.2.1, SVG Export Plug-In . SVG Version: 6.00 Build 0)  -->
<svg version="1.1" id="Layer_1" xmlns="http://www.w3.org/2000/svg" xmlns:xlink="http://www.w3.org/1999/xlink" x="0px" y="0px"
	 viewBox="0 0 1024 1024" enable-background="new 0 0 1024 1024" xml:space="preserve">
<path id="XMLID_15_" fill="#F1F2F4" d="M157.3,880.8c92.1,88.7,217.2,143.2,355.2,143.2c282.8,0,512-229.2,512-512
	c0-141.4-57.3-269.4-150-362L157.3,880.8z"/>
<path id="XMLID_17_" fill="#5680C1" d="M515.6,516.2L157.3,880.8c92.1,88.7,217.2,143.2,355.2,143.2c143.4,0,273-58.9,365.9-153.9
	L515.6,516.2L515.6,516.2"/>
<polygon fill="#FFFFFF" points="853.5,893.9 491.9,532.3 531.9,492.2 893.6,853.9 874,874.7 "/>
<g>
	<path fill="#3AAA52" d="M512.5,0C229.7,0,0.5,229.2,0.5,512c0,127.8,46.9,244.7,124.3,334.5l0,0l0,0c1.9,2.2,3.8,4.4,5.8,6.5
		l722.9-722.9C763,49.2,643.5,0,512.5,0z"/>
	<path fill="#F7BB19" d="M883,158.3L868.2,144l0.1-0.1c-3.1-3-6.1-5.9-9.3-8.7l-0.1-0.1h0c-1.8-1.6-3.6-3.3-5.4-4.9L130.6,853
		c5.2,5.8,10.5,11.5,16,17.1l10.7,10.7l13.3,12.3l723-723L883,158.3z"/>
</g>
<g id="XMLID_13_">
	<path id="XMLID_16_" fill="#FFFFFF" d="M414.3,218.7c-12.7,12.7-25.2,25.2-37.5,37.5c-6.3-4-12.5-8.9-19.4-12.1
		c-31.8-14.8-68.2-7.1-92.3,19.1c-41.8,45.3-20.5,120.4,39.2,135.7c28.5,7.3,55.2,2.1,77.1-19.3c9-8.8,14.2-19.8,16.6-32.7
		c-24.7,0-49,0-73.5,0c0-17.8,0-35.1,0-52.7c42.3,0,84.5,0,127.6,0c0.7,6.8,1.7,13.8,2,20.7c1.3,28.6-3.8,55.9-18.7,80.7
		c-18.6,31.1-46.4,49.5-81.7,56.3c-42.5,8.1-81.4-0.3-115.2-27.9c-29-23.7-45.5-54.5-48.9-91.9c-3.8-41.4,9-77.5,37.7-107.3
		c23.2-24.1,52.1-37.3,85.6-40.5C349.5,180.7,387.7,193.4,414.3,218.7z"/>
</g>
<g>
	<path fill="#E94636" d="M981.9,356.1c0-1.7,0.1-3.3,0.1-5C982,248.3,898.6,165,795.9,165c-102.8,0-186.1,83.3-186.1,186.1
		c-6.8,78,56.6,153.3,56.6,153.3C774.3,641.7,762.3,682,783.5,740.8c11,30.6,19.1,19.2,23.8,10.6c1.7-3,2.6-10.6,2.6-10.6
		c5.5-89.7,70.9-179.4,122.3-246.8C983.5,426.6,981.9,356.1,981.9,356.1L981.9,356.1z"/>
	<circle fill="#802D28" cx="795.6" cy="351.7" r="65.6"/>
</g>
</svg>
